<svg width="124" height="85" viewBox="0 0 124 85" fill="none" xmlns="http://www.w3.org/2000/svg">
<path d="M4.16895 57.75C10.7787 62.8282 17.8003 67.6318 23.0965 74.1654C25.0627 76.5909 26.4325 79.2419 27.9661 81.9257C28.1814 82.3026 28.3731 82.7919 28.6371 82.5279" stroke="#8750FF" stroke-width="3" stroke-linecap="round"/>
<path d="M2 57.7499C2 61.0094 2.30972 70.7829 2.30972 67.5234C2.30972 64.4204 2.30972 61.3174 2.30972 58.2145C2.30972 56.509 1.54339 55.6582 3.46258 55.5646C5.72394 55.4543 7.25695 55.2206 9.36455 56.0636C9.94623 56.2963 11.0244 56.2861 11.2917 56.8207" stroke="#8750FF" stroke-width="3" stroke-linecap="round"/>
<path d="M77.5732 8.81362C87.6679 8.81362 97.7626 8.81362 107.857 8.81362C112.752 8.81362 117.647 8.62699 122.483 9.43306" stroke="#8750FF" stroke-width="3" stroke-linecap="round"/>
<path d="M76.0244 10.0528C78.7588 10.8503 82.0024 11.5905 83.5782 14.2169C84.0187 14.951 84.0738 15.9262 84.5246 16.6775C86.1747 19.4276 80.4603 11.7012 78.1925 9.43337C76.3064 7.54728 77.3802 7.01972 79.569 5.5102C81.2512 4.35005 82.6109 3.69382 83.4578 2" stroke="#8750FF" stroke-width="3" stroke-linecap="round"/>
<path d="M65.1846 39.7871C81.9268 48.943 97.4755 61.7911 108.236 77.5734" stroke="#8750FF" stroke-width="3" stroke-linecap="round"/>
<path d="M64.2553 41.0245C64.2553 42.6763 64.2553 47.6319 64.2553 45.9801C64.2553 42.4871 64.2553 38.9941 64.2553 35.5011C64.2553 35.2184 64.0475 33.4653 64.393 33.3502C65.2925 33.0504 67.0727 34.1996 67.8171 34.5203C69.0065 35.0326 70.1959 35.5431 71.379 36.0689" stroke="#8750FF" stroke-width="3" stroke-linecap="round"/>
</svg>
