<svg width="45" height="209" viewBox="0 0 45 209" fill="none" xmlns="http://www.w3.org/2000/svg">
<path d="M7.57548 2C11.8169 11.6056 15.0066 20.026 16.6909 30.2314C18.1245 38.9172 20.183 47.406 21.2929 56.1618C23.2582 71.6657 23.1837 95.3067 6.86748 103.465C2.71356 105.542 2 100.67 2 97.6238C2 90.8677 7.42257 86.9867 13.6377 84.8799C23.0611 81.6855 31.9901 80.264 37.0458 90.1456C44.9862 105.665 43.5436 125.182 40.2318 141.741C36.5629 160.085 31.7256 178.337 26.0719 196.168C24.3244 201.68 26.5172 200.569 24.3019 197.938C22.8282 196.188 21.9898 192.871 20.9389 190.77C19.3879 187.668 20.5214 188.692 21.0717 191.168C22.1684 196.103 23.7486 201.378 25.1426 206.257C25.8915 208.878 30.056 198.466 30.2756 198.027C31.5987 195.38 34.5609 193.445 35.4529 190.77" stroke="#8DD84C" stroke-width="3" stroke-linecap="round"/>
</svg>
