<svg width="390" height="695" viewBox="0 0 390 695" fill="none" xmlns="http://www.w3.org/2000/svg">
<path d="M429.615 3.31253C426.146 11.834 412.634 43.8386 407.369 51.6579C399.451 63.4188 388.159 73.4793 377.237 82.8644C360.983 96.8299 343.784 108.985 325.911 120.981C310.949 131.022 294.252 138.445 278.151 146.518C271.079 150.063 271.959 146.526 277.695 143.65C281.561 141.712 288.608 141.046 287.004 147.033C284.613 155.964 274.206 163.29 266.932 168.816C254.91 177.95 243.553 186.984 228.99 191.598C202.285 200.061 176.093 209.611 150.024 220.043C129.382 228.302 108.991 237.503 90.3326 249.704C71.6446 261.924 45.3143 279.656 46.5656 303.093C46.9853 310.955 48.1161 321.523 58.8594 319.973C64.8932 319.102 73.2435 314.676 76.0238 321.584C78.8107 328.508 75.8426 337.634 73.473 344.712C72.0404 348.991 70.9704 353.341 69.5284 357.614C68.2713 361.34 62.6386 364.065 59.7793 366.483C44.2743 379.594 28.8868 393.039 10.8668 402.947C0.417761 408.692 -10.3576 410.683 -21.3826 414.648C-27.2672 416.764 -35.3695 419.415 -40.3502 423.45C-44.5386 426.843 -45.8193 433.525 -46.7158 438.185C-48.2047 445.924 -47.8051 451.884 -44.3209 458.833C-40.9195 465.618 -33.8892 469.06 -30.4418 475.936C-28.8761 479.059 -28.016 481.938 -27.4996 485.429C-26.9996 488.809 -24.407 493.792 -25.0767 497.218C-25.5805 499.795 -23.6809 502.552 -23.1382 505.003C-22.2494 509.018 -23.1992 512.706 -23.673 516.771C-24.1999 521.292 -24.7186 526.148 -22.6836 530.207C-20.7559 534.052 -19.9443 536.178 -24.2018 539.327C-29.6429 543.353 -36.3041 546.987 -42.4049 550.046C-43.841 550.766 -45.4841 551.825 -47.0441 551.177C-49.3634 550.214 -53.1629 552.131 -55.6184 552.69C-66.9997 555.282 -76.9043 558.767 -79.0516 570.807C-81.2673 583.231 -78.1057 592.902 -74.4112 604.262C-70.8277 615.28 -69.6804 626.975 -70.123 638.778C-70.4588 647.733 -73.8193 655.69 -78.1564 663.902C-80.6412 668.607 -84.5053 672.132 -87.8047 676.303C-90.4233 679.613 -93.1469 682.993 -96.7561 685.39C-101.516 688.552 -107.46 691.593 -113.024 692.131" stroke="#8DD84C" stroke-width="5.07834" stroke-linecap="round"/>
</svg>
