<svg width="1440" height="767" viewBox="0 0 1440 767" fill="none" xmlns="http://www.w3.org/2000/svg">
<path d="M1442 2C1429.03 14.6186 1395.01 45.5606 1379.62 55.1977C1356.48 69.6926 1329.11 77.8782 1302.93 85.1509C1263.97 95.9732 1224.95 102.546 1184.93 108.192C1151.43 112.918 1117.22 111.154 1083.47 111.154C1068.64 111.154 1073.09 105.394 1085.11 105.394C1093.22 105.394 1105.58 110.727 1097.87 120.371C1086.36 134.757 1062.77 138.681 1045.94 142.177C1018.13 147.957 991.514 154.17 963.241 149.172C911.394 140.006 859.493 133.343 807.056 128.435C765.537 124.549 723.648 122.646 682.141 127.941C640.569 133.245 581.563 141.677 563.974 186.449C558.074 201.468 551.092 222.185 570.392 229.322C581.232 233.33 598.939 232.885 597.795 248.33C596.648 263.813 584.01 278.023 574.095 288.981C568.101 295.606 562.655 302.701 556.65 309.307C551.415 315.065 539.69 314.881 532.869 316.713C495.88 326.645 458.808 337.305 420.297 338.931C397.966 339.873 378.241 333.526 356.44 330.62C344.804 329.068 329.004 326.441 317.271 329.303C307.404 331.71 299.646 342.946 294.23 350.781C285.235 363.791 280.899 375.252 280.899 391.431C280.899 407.227 289.786 420.188 289.786 436.197C289.786 443.468 288.809 449.627 286.741 456.604C284.74 463.36 284.898 475.048 280.899 480.798C277.891 485.122 278.757 492.024 277.607 497.091C275.725 505.389 271.036 511.365 266.827 518.486C262.147 526.407 257.2 534.957 257.2 544.407C257.2 553.359 256.774 558.071 246.996 559.96C234.499 562.374 220.287 562.922 207.497 562.922C204.486 562.922 200.844 563.361 198.774 560.7C195.698 556.745 187.723 556.766 183.139 555.516C161.895 549.722 142.374 546.968 128.664 567.366C114.517 588.414 111.69 609.356 108.338 633.938C105.087 657.781 97.187 680.608 86.5318 702.156C78.4477 718.503 66.1339 730.174 51.9703 741.407C43.8558 747.843 34.4216 750.796 25.3909 755.479C18.2233 759.195 10.8212 762.944 2.76139 764.037C-7.86898 765.478 -20.38 765.593 -30.1543 761.404" stroke="#8DD84C" stroke-width="3" stroke-linecap="round"/>
</svg>
