<svg width="40" height="40" viewBox="0 0 40 40" fill="none" xmlns="http://www.w3.org/2000/svg">
<path d="M20 0C31.03 0 40 8.972 40 20C40 31.028 31.03 40 20 40C8.972 40 0 31.028 0 20C0 8.972 8.972 0 20 0Z" fill="black"/>
<path d="M17.1159 11.5579C17.4979 11.5579 17.8819 11.7039 18.1739 11.9959L25.1479 18.9359C25.4299 19.2179 25.5879 19.5999 25.5879 19.9999C25.5879 20.3979 25.4299 20.7799 25.1479 21.0619L18.1739 28.0059C17.5879 28.5899 16.6399 28.5899 16.0539 28.0019C15.4699 27.4139 15.4719 26.4639 16.0579 25.8799L21.9639 19.9999L16.0579 14.1199C15.4719 13.5359 15.4699 12.5879 16.0539 11.9999C16.3459 11.7039 16.7319 11.5579 17.1159 11.5579Z" fill="white"/>
</svg>
