<svg width="117" height="114" viewBox="0 0 117 114" fill="none" xmlns="http://www.w3.org/2000/svg">
<path d="M30.7768 9.02254L22.5457 14.0328C21.1441 14.8859 19.8495 15.9033 18.6893 17.0635L14.3881 21.3647C13.362 22.3909 12.4471 23.5225 11.6588 24.7409L8.39148 29.7903C7.38843 31.3405 6.59829 33.0185 6.04228 34.7792L3.62669 42.4285L2.35291 49.222C2.11814 50.4741 2 51.7453 2 53.0192V59.9423C2 60.9173 2.0692 61.891 2.20709 62.8562L3.25073 70.1617C3.50034 71.909 3.97341 73.6169 4.65832 75.2436L7.27191 81.4508C7.7328 82.5454 8.28746 83.5982 8.92971 84.5972L11.8414 89.1265C12.5089 90.1648 13.2683 91.141 14.1105 92.0433L18.9883 97.2695C19.9508 98.3008 21.0166 99.2305 22.1691 100.044L27.5918 103.872C28.9613 104.838 30.4437 105.634 32.0061 106.242L37.2735 108.291C38.696 108.844 40.1756 109.237 41.6851 109.464L50.2585 110.75L59.9504 111.153C62.1506 111.245 64.3513 110.983 66.4687 110.378L70.8633 109.123L76.2297 107.206C77.7081 106.678 79.1212 105.983 80.4417 105.134L86.0457 101.532L91.8525 96.5544C93.0383 95.538 94.1047 94.3901 95.0311 93.1328L100.306 85.9735C100.92 85.1407 101.47 84.2628 101.952 83.3474L105.016 77.5256C106.098 75.4701 106.824 73.2464 107.165 70.9487L108.407 62.5632C108.681 60.7163 108.702 58.8407 108.47 56.9879L107.018 45.37C106.774 43.4191 106.252 41.5131 105.469 39.71L102.427 32.7143C101.632 30.8859 100.576 29.1826 99.2917 27.6576L92.5525 19.6549L87.9969 15.0992C86.7019 13.8042 85.24 12.6877 83.6499 11.7791L78.4545 8.81024L72.1868 6.06814C70.588 5.36863 68.9067 4.87509 67.1834 4.59936L59.1215 3.30945C57.1989 3.00184 55.2424 2.96828 53.3104 3.20978L45.0703 4.23979C43.8323 4.39454 42.611 4.66141 41.4213 5.0371L35.2854 6.97475C33.7057 7.47361 32.1918 8.16117 30.7768 9.02254Z" fill="#FF4E07"/>
<path d="M34.4245 15.7658L27.3216 20.0893C26.1121 20.8255 24.9949 21.7036 23.9937 22.7047L20.2821 26.4164C19.3966 27.3019 18.6071 28.2785 17.9268 29.3299L15.1073 33.6873C14.2417 35.025 13.5599 36.473 13.0801 37.9923L10.9955 44.5933L9.89634 50.4557C9.69375 51.5362 9.5918 52.6332 9.5918 53.7325V59.7067C9.5918 60.5481 9.65152 61.3884 9.7705 62.2213L10.6711 68.5255C10.8865 70.0333 11.2947 71.5071 11.8858 72.9109L14.1412 78.2674C14.5389 79.212 15.0175 80.1204 15.5717 80.9825L18.0844 84.891C18.6604 85.787 19.3157 86.6294 20.0424 87.4081L24.2517 91.918C25.0823 92.808 26.0021 93.6102 26.9966 94.3122L31.6761 97.6154C32.8579 98.4496 34.1371 99.1365 35.4854 99.6608L40.0308 101.429C41.2584 101.906 42.5352 102.245 43.8378 102.441L51.2362 103.551L59.5997 103.899C61.4984 103.978 63.3975 103.752 65.2247 103.23L69.017 102.147L73.6479 100.493C74.9236 100.037 76.1431 99.4374 77.2826 98.7048L82.1186 95.596L87.1295 91.3009C88.1528 90.4238 89.073 89.4333 89.8725 88.3483L94.4247 82.1702C94.9543 81.4515 95.429 80.694 95.8447 79.904L98.4889 74.8802C99.4225 73.1063 100.049 71.1874 100.343 69.2046L101.415 61.9684C101.651 60.3746 101.67 58.7561 101.47 57.1573L100.217 47.1316C100.006 45.4481 99.5559 43.8033 98.8794 42.2474L96.2546 36.2104C95.5686 34.6327 94.6573 33.1628 93.5491 31.8469L87.7335 24.9409L83.8023 21.0097C82.6848 19.8922 81.4233 18.9286 80.0511 18.1445L75.5678 15.5826L70.1591 13.2163C68.7794 12.6127 67.3285 12.1868 65.8415 11.9489L58.8844 10.8357C57.2254 10.5703 55.537 10.5413 53.8698 10.7497L46.7591 11.6386C45.6908 11.7721 44.6368 12.0024 43.6102 12.3266L38.3152 13.9987C36.952 14.4292 35.6457 15.0225 34.4245 15.7658Z" stroke="black" stroke-width="2.16892"/>
<path d="M32.6368 2C30.5247 2.34561 28.2949 2.64336 26.3204 3.49599C24.7528 4.1729 23.1982 5.35514 21.7576 6.27188C20.6438 6.98067 19.3711 7.3964 18.2753 8.13356C17.2407 8.82954 16.2111 9.61645 15.2501 10.4108C13.9536 11.4824 12.8117 12.7171 11.5101 13.7851C10.9516 14.2433 10.6415 14.8342 10.1221 15.3309C9.37442 16.0461 8.81536 17.148 8.16904 17.9739C7.81287 18.429 7.52199 19.0834 7.27144 19.5945C6.17788 21.8254 4.85001 23.9164 3.76418 26.1519C3.01164 27.7013 2.71698 29.2441 2.71698 30.9474C2.71698 31.2973 2.91059 32.6458 2.56738 32.8174" stroke="black" stroke-width="3.25338" stroke-linecap="round"/>
<path d="M82.3047 111.806C83.4615 110.839 84.6666 110.19 86.0031 109.504C87.6595 108.652 89.2141 107.618 90.8651 106.753C93.5529 105.344 96.1644 103.851 98.7107 102.198C101.616 100.313 103.768 98.0997 105.792 95.3166C107.064 93.5668 108.811 91.9454 109.648 89.9311C109.99 89.1072 110.063 88.1886 110.363 87.3463C110.743 86.2788 111.217 85.2391 111.659 84.1964C112.399 82.4547 113.252 80.8073 113.72 78.9605C113.943 78.0823 114.059 77.2267 114.319 76.3508C114.392 76.1049 114.443 75.8678 114.46 75.6111C114.474 75.4037 114.291 74.8948 114.477 74.9878C114.61 75.0542 114.613 75.7666 114.768 75.3036" stroke="black" stroke-width="3.25338" stroke-linecap="round"/>
<path d="M41.8893 82.9445C41.8893 74.8555 41.4758 66.7668 42.0187 58.691C42.1849 56.2185 42.0556 53.6981 42.0556 51.2227C42.0556 48.7366 42.1001 46.2687 41.8893 43.7913C41.7379 42.0129 41.5565 40.3166 41.5565 38.5228C41.5565 37.5415 41.3828 36.8401 41.2238 35.9256C41.1139 35.2937 40.4472 33.5128 40.7986 34.0492C42.1073 36.0468 43.0606 38.3364 44.0891 40.4823C44.9349 42.247 46.0242 43.8579 47.0468 45.5197C48.4158 47.7443 49.6019 49.9385 51.3171 51.9436C53.3735 54.3475 54.7954 57.0216 56.5301 59.6337C56.8645 60.1372 57.2433 60.4873 57.667 60.8908C58.8403 62.0082 59.7882 63.4651 60.7819 64.7359C62.3951 66.7991 64.1597 68.9404 65.3387 71.2984C65.9617 72.5445 66.4817 73.7785 67.2519 74.9493C68.1284 76.2815 68.6129 78.0572 69.7568 79.2011C70.7798 80.2241 70.6564 79.2574 70.6718 78.1936C70.7088 75.6438 71.2582 73.083 71.3281 70.5312C71.5208 63.4959 71.8365 56.4509 71.8365 49.411C71.8365 44.5527 72.2784 39.5148 71.3004 34.7332C71.1553 34.0238 71.171 33.3431 71.171 32.6166C71.171 32.1096 70.6718 32.0118 70.6718 31.5352" stroke="black" stroke-width="2.22676" stroke-linecap="round"/>
<path d="M29.7441 50.834C35.7576 51.7656 41.6315 53.3672 47.7124 53.8934C52.8111 54.3346 58.3066 54.2763 63.3146 53.2002C66.7757 52.4565 70.2923 51.8322 73.833 51.8322C75.2539 51.8322 76.7076 51.7253 78.094 52.0818C78.7718 52.2561 80.473 52.6791 80.9871 52.165" stroke="black" stroke-width="2.22676" stroke-linecap="round"/>
<path d="M32.9062 63.8105C36.555 63.8751 40.1133 64.7274 43.7575 64.7995C46.1668 64.8473 48.357 64.0679 50.7267 63.9862C53.6902 63.884 56.6519 63.8105 59.6184 63.8105C61.3191 63.8105 63.0198 63.8105 64.7205 63.8105C68.5258 63.8105 72.3434 64.6124 76.1448 64.0693C77.949 63.8116 79.8289 63.9769 81.6536 63.9769" stroke="black" stroke-width="2.22676" stroke-linecap="round"/>
</svg>
