<svg width="120" height="135" viewBox="0 0 120 135" fill="none" xmlns="http://www.w3.org/2000/svg">
<path d="M62.0553 4.36591L19.3449 18.9284C16.4143 19.9275 13.9223 21.9143 12.2953 24.5486C10.1992 27.9424 9.73065 32.0957 11.0179 35.8712L40.5402 122.457C41.7541 126.018 44.5077 128.841 48.0363 130.144C50.7276 131.138 53.6789 131.175 56.3943 130.249L102.176 114.64C104.962 113.69 107.257 111.672 108.555 109.03C109.87 106.355 110.053 103.264 109.064 100.452L77.9832 12.0987C76.7402 8.56511 73.9871 5.76919 70.4732 4.47166C67.7626 3.47078 64.7901 3.43344 62.0553 4.36591Z" fill="#854FFE" stroke="black" stroke-opacity="0.2" stroke-width="1.02209"/>
<path d="M24.6937 26.3312C27.1454 25.7319 29.6045 25.035 32.0206 24.3016C33.4069 23.8808 34.7125 23.361 35.9439 22.5877C38.2797 21.121 41.0042 20.2948 43.5987 19.4102C45.6339 18.7163 47.7351 18.3562 49.7502 17.6692C52.4938 16.7337 55.3067 16.131 58.0538 15.1944C59.3564 14.7503 60.5419 14.1085 61.8361 13.6672" stroke="black" stroke-width="3.06628" stroke-linecap="round"/>
<path d="M69.3206 109.836C69.0624 111.267 68.7243 112.617 69.2051 114.027C69.3416 114.427 69.4366 115.108 69.8089 115.372C71.2664 116.405 73.4739 115.347 74.9372 114.811C75.7193 114.525 76.5343 113.877 77.0758 113.244C77.4461 112.811 78.1077 112.243 78.3019 111.71C78.7923 110.365 78.7792 109.211 78.5122 107.798C78.2885 106.614 77.397 105.851 76.33 105.308C74.9389 104.6 73.9865 105.569 72.7839 106.134C71.9548 106.524 71.0651 106.865 70.1971 107.161C69.9105 107.259 69.0485 107.532 68.8757 107.757C68.6736 108.021 69.1713 109.05 69.0641 108.735" stroke="black" stroke-width="3.06628" stroke-linecap="round"/>
<path d="M107.658 79.4204C108.683 82.4248 110.355 85.1396 111.554 88.0778C111.926 88.9892 112.2 89.9529 112.517 90.8842C113.464 93.6618 114.521 96.4232 115.34 99.2407C116.019 101.576 116.659 103.806 116.921 106.239C117.171 108.56 116.387 110.96 114.884 112.768C114.423 113.322 114.256 113.929 113.63 114.357C113.248 114.618 112.833 114.893 112.498 115.218C112.273 115.436 111.992 115.27 112.205 115.054" stroke="black" stroke-width="3.06628" stroke-linecap="round"/>
<path d="M23.6053 12.2742C20.9989 13.1262 18.3411 13.7621 15.7431 14.6479C13.901 15.276 11.7844 16.2442 10.2677 17.4698C9.08394 18.4263 7.63913 19.0672 6.68577 20.2685C6.32725 20.7202 5.94963 21.0784 5.59714 21.552C4.92869 22.4499 5.13837 23.9666 5.23549 25.0177C5.5718 28.6573 4.79074 32.3395 5.74655 35.9195C6.77297 39.7639 8.1158 43.5397 9.55788 47.2478C11.3305 51.806 12.4599 56.5594 14.0327 61.1722C14.2931 61.9361 15.0744 64.2277 14.814 63.4638" stroke="black" stroke-width="3.06628" stroke-linecap="round"/>
<path d="M77.0326 78.352C79.4807 77.4803 81.9288 76.6085 84.3769 75.7367C86.0225 75.1508 85.3861 75.0563 84.7948 73.5058C84.3845 72.4299 81.7125 66.8405 82.5756 65.9415" stroke="black" stroke-width="1.61628" stroke-linecap="round"/>
<path d="M61.0152 41.3612C63.8765 40.3423 66.7378 39.3234 69.5991 38.3045C69.9616 38.1754 70.4331 37.8343 70.6045 38.3155C70.9341 39.2412 71.0502 40.2332 71.3851 41.1738C72.0612 43.0724 72.674 45.0094 73.6663 46.7658C74.1446 47.6123 74.4571 48.4684 74.7837 49.3855C74.8524 49.5784 75.1796 50.6774 75.2566 50.0474" stroke="black" stroke-width="1.61628" stroke-linecap="round"/>
<path d="M42.2201 48.5291C39.6748 49.1445 37.2405 50.0651 34.7775 50.9422C34.5151 51.0357 33.5817 51.2015 33.4334 51.4604C33.0707 52.0937 34.7542 54.8735 35.0012 55.567C35.4551 56.8417 35.8268 58.3174 35.9912 59.6422C36.0504 60.12 36.8638 62.1297 36.6916 61.6461" stroke="black" stroke-width="1.61628" stroke-linecap="round"/>
<path d="M43.4373 80.5882C44.3959 83.28 45.1189 85.9766 46.0753 88.6623C46.5237 89.9213 46.4155 90.676 47.8025 90.1821C48.7754 89.8356 53.7807 87.4712 54.4031 88.0688" stroke="black" stroke-width="1.61628" stroke-linecap="round"/>
<path d="M49.945 80.8846C49.7789 80.4182 46.8296 73.3968 47.2925 73.066C48.8917 71.9234 51.1074 71.4572 52.9906 70.7866" stroke="black" stroke-width="1.61628" stroke-linecap="round"/>
<path d="M51.7236 75.6211L52.9911 79.1804" stroke="black" stroke-width="1.61628" stroke-linecap="round"/>
<path d="M45.2235 68.937C46.7821 68.382 48.2035 67.7086 49.6803 66.9766C50.8066 66.4183 52.0464 66.1482 53.165 65.5671C53.7287 65.2742 54.5583 64.7709 55.2127 64.7897C55.4154 64.7956 55.1822 65.3791 55.2218 65.5934C55.3987 66.5504 55.8925 67.4976 56.3863 68.3223C56.7638 68.9527 57.1714 69.5599 57.5653 70.1788C57.6608 70.3289 57.7358 70.873 57.8884 70.7141" stroke="black" stroke-width="1.61628" stroke-linecap="round"/>
<path d="M62.9311 62.9557C62.597 62.0173 62.1739 61.1338 61.8415 60.2002C61.7233 59.8683 61.6621 59.4401 61.3203 59.2778C60.9231 59.0892 60.416 59.5155 60.0217 59.6559C59.6336 59.7941 58.888 59.9042 58.5864 60.1911C58.2173 60.5421 58.7064 60.9136 58.905 61.3904C59.446 62.6892 59.9416 63.9968 60.4134 65.3217C60.5673 65.7539 60.6519 66.1625 60.7659 66.5993C60.8581 66.9524 61.1095 67.3259 61.1255 67.6937C61.1463 68.1699 61.1987 68.5589 61.7172 68.3743C62.1661 68.2144 62.615 68.0546 63.064 67.8947" stroke="black" stroke-width="1.61628" stroke-linecap="round"/>
<path d="M55.5021 74.055C55.6355 74.4295 56.2614 76.7943 56.6537 76.68C57.8275 76.3383 58.9845 75.6376 60.0108 74.9968C60.2018 74.8775 62.8991 73.8467 62.8592 73.7115C62.6986 73.1664 62.4752 72.633 62.2845 72.0975C62.1685 71.7718 62.1635 71.2057 61.9757 70.9428C61.7957 70.6909 61.3348 71.0684 61.1977 71.1596C60.7288 71.4716 60.206 71.6212 59.6714 71.8115C58.7148 72.1522 57.7582 72.4928 56.8015 72.8335C56.5993 72.9055 55.5891 73.1049 55.4837 73.3269C55.4158 73.47 55.7143 74.053 55.7631 74.1789C56.0126 74.8226 56.6273 74.4994 56.8157 73.9726C56.9066 73.7188 56.1105 74.1221 56.1077 74.5379C56.1028 75.2721 57.2754 73.6495 56.8833 73.5029C56.434 73.3349 56.1872 74.787 56.4699 74.8787C56.9781 75.0434 58.0503 73.359 57.8368 73.2718C57.2467 73.0307 56.7635 74.3812 56.7585 74.7759C56.7522 75.2762 57.9421 74.0072 57.9701 73.5616C57.9928 73.2017 57.7098 73.2276 57.4627 73.405C57.1609 73.6217 57.0258 74.0287 56.9135 74.3654C56.8285 74.62 56.657 74.9309 56.778 75.2025C56.8742 75.4186 57.6463 75.1326 57.784 75.0852C58.2775 74.9152 59.7507 74.3848 59.2591 74.5599C58.8581 74.7027 58.4094 74.8088 58.0375 75.019C57.9914 75.045 57.6204 75.3655 57.8201 75.2711C58.3221 75.0336 58.9122 74.539 59.1786 74.0466C59.6591 73.1584 58.347 73.6367 58.2761 74.0488C58.1837 74.586 60.6533 74.2525 60.1655 73.2495C60.0817 73.0773 59.2753 72.3727 59.0852 72.7188C58.8777 73.0969 59.9373 72.9932 60.0111 72.9853C60.2165 72.9633 61.0316 72.7064 60.9314 72.7961C60.8065 72.908 60.8811 73.1751 61.0126 73.261C61.3424 73.4765 61.5683 73.1445 61.5194 72.8577C61.4366 72.3721 61.1858 71.8148 60.6102 71.8265C60.1467 71.8359 60.3779 72.7523 60.9301 72.5557C61.3616 72.402 60.1744 72.0601 59.8693 72.4517C59.6814 72.6929 59.6172 73.1313 59.2262 72.9457" stroke="black" stroke-width="1.61628" stroke-linecap="round"/>
<path d="M54.5413 80.7939C57.1843 80.3404 59.4448 78.7226 61.942 77.8333C63.0395 77.4425 64.05 76.9719 65.2193 76.9914" stroke="black" stroke-width="1.61628" stroke-linecap="round"/>
<path d="M64.9905 65.6924C67.6763 64.736 70.3466 63.8936 73.0092 62.9454C73.0612 62.9269 73.8719 62.5946 73.92 62.7295C73.9209 62.7322 73.8063 63.0529 73.8615 63.2079C74.2678 64.3488 74.8028 65.4491 75.32 66.5427C75.9556 67.8867 76.9291 69.0876 77.5149 70.4402C77.621 70.6853 78.1104 71.6308 77.9131 71.8461C77.6459 72.1377 77.3486 72.2643 76.9959 72.4497C75.7165 73.1223 74.1292 73.5294 72.7582 73.9768C71.5255 74.3791 70.2127 74.6617 69.0295 75.2083C68.9254 75.2564 67.8995 75.8719 67.887 75.585C67.8363 74.4233 67.2639 73.2942 66.8742 72.1999C66.397 70.8597 65.9458 69.4647 65.2874 68.2003C65.1742 67.983 64.6987 67.1675 64.8284 66.8944C64.935 66.6698 64.9635 66.5299 64.8732 66.2762" stroke="black" stroke-width="1.61628" stroke-linecap="round"/>
<path d="M65.0068 61.7793C66.3595 61.2976 67.7965 60.7859 69.0472 60.3405" stroke="black" stroke-width="1.61628" stroke-linecap="round"/>
<path d="M64.6632 54.4263C66.3071 53.8409 67.9059 53.1632 69.535 52.583" stroke="black" stroke-width="1.61628" stroke-linecap="round"/>
<path d="M64.7559 51.0328C64.3505 49.8944 63.9451 48.7561 63.5398 47.6177C63.4365 47.3276 63.156 47.2666 63.578 47.1163C63.8428 47.022 64.0679 47.1267 64.3287 47.0598C64.8325 46.9303 65.3262 46.7106 65.8163 46.536C66.2154 46.3939 66.6144 46.2518 67.0135 46.1097C67.3394 45.9937 67.6719 45.787 67.393 46.2456C67.0866 46.7494 67.0581 47.2787 67.2954 47.7979C67.5734 48.4058 68.0986 48.9208 68.3505 49.56C68.4185 49.7327 68.7695 50.7367 68.6854 50.5006" stroke="black" stroke-width="1.61628" stroke-linecap="round"/>
<path d="M63.9054 58.3834C65.8324 57.6972 67.7189 56.917 69.643 56.2318C69.9477 56.1233 70.2523 56.0149 70.5569 55.9064C70.9622 55.7621 70.7753 55.8128 70.7154 56.1992C70.6125 56.863 70.9748 57.5366 71.1929 58.149C71.3034 58.4594 71.3767 58.9272 71.6102 59.1686C71.8308 59.3967 72.1675 60.3354 72.0372 59.6067" stroke="black" stroke-width="1.61628" stroke-linecap="round"/>
<path d="M58.7406 49.0567C59.1684 50.2579 59.5032 51.5702 60.2272 52.6223C60.6044 53.1705 61.0185 53.9314 61.2427 54.5611C61.3125 54.7571 61.7488 55.9823 61.4825 55.2345" stroke="black" stroke-width="1.61628" stroke-linecap="round"/>
<path d="M51.8799 54.7539C53.5207 54.1696 55.2132 53.7837 56.8545 53.1992" stroke="black" stroke-width="1.61628" stroke-linecap="round"/>
<path d="M55.4844 49.3496C55.9967 50.7147 56.8678 51.9036 57.4117 53.24C57.7396 54.0455 58.2203 54.8854 58.6467 55.6427C58.8566 56.0154 59.2684 57.2363 59.1249 56.8334" stroke="black" stroke-width="1.61628" stroke-linecap="round"/>
<path d="M39.5893 55.5503C40.3665 55.1365 41.2036 54.9109 42.0058 54.5573C42.6103 54.2908 43.1677 53.9174 43.7522 53.6102C44.4241 53.257 45.0922 52.9403 45.8076 52.6855C46.3328 52.4985 46.9479 52.3043 47.5039 52.2742C47.7764 52.2594 47.6726 52.3184 47.5052 52.5146C47.2396 52.826 47.4762 53.3463 47.5935 53.6756C48.044 54.9409 48.5957 56.0435 49.3262 57.1716C49.9775 58.1774 50.2967 59.3468 50.8348 60.4102C51.0307 60.7974 51.1857 61.2559 51.3091 61.6746C51.4553 62.1707 50.4215 62.3158 50.1078 62.4275C48.3368 63.0582 46.6288 63.8832 44.848 64.5173C44.4614 64.655 43.0955 65.3961 43.1665 64.6826C43.2655 63.686 42.8529 62.5643 42.3312 61.7281C41.5592 60.4908 40.7612 59.1342 40.1787 57.7974C39.9004 57.1587 39.8192 56.5003 39.5958 55.8731" stroke="black" stroke-width="1.61628" stroke-linecap="round"/>
<path d="M42.5023 57.3305C42.812 58.1658 43.2799 58.9053 43.5777 59.7417C43.68 60.029 43.7976 60.3624 44.0112 60.587C44.184 60.7687 44.4819 61.5034 44.7653 61.4025C45.6981 61.0703 46.5655 60.6863 47.4366 60.2284C48.096 59.8817 47.7839 59.3775 47.5894 58.8311C47.3546 58.172 47.1199 57.5128 46.8852 56.8537C46.7717 56.535 46.6731 55.8552 46.4185 55.6107C46.0854 55.291 44.4819 56.5171 44.1088 56.65C43.8358 56.7472 42.7976 56.9422 42.9213 57.2896C43.1165 57.8378 43.727 57.778 44.2032 57.6763C44.6012 57.5912 44.9258 57.2263 44.3668 57.4253C43.6311 57.6873 43.2987 58.2229 43.3838 59.0279C43.4889 60.0234 45.2093 60.1113 45.4741 59.1989C45.6238 58.6833 45.4809 57.7411 45.1786 57.2868C44.9847 56.9953 44.4602 57.5407 44.3871 57.7192C44.2229 58.1201 43.8253 60.7616 44.7189 60.4434C45.3025 60.2356 45.4334 59.7691 45.3894 59.1809C45.3708 58.9326 45.3287 57.8133 45.0642 57.6587C44.8225 57.5175 44.9502 58.1133 44.9668 58.1631C45.0697 58.473 45.1828 58.871 45.4941 59.0352C46.2617 59.4403 46.0997 57.5284 46.1171 57.1995C46.1409 56.7477 46.0824 57.2094 46.0955 57.3758C46.1425 57.972 46.4022 58.5414 46.6007 59.0988C46.6184 59.1484 46.8077 59.7581 46.7626 59.3844C46.66 58.5329 46.4015 57.6782 46.1746 56.8538C46.1132 56.6307 45.5657 54.4919 45.6895 55.7619C45.7524 56.4077 45.7587 57.0386 45.9793 57.6581C46.1792 58.2195 46.1928 58.1824 46.6486 58.4555C46.8022 58.5475 46.0195 58.7088 45.9722 58.7205C45.6723 58.7942 45.4697 58.9326 45.3726 59.2351C45.1632 59.8869 45.913 59.6472 46.2881 59.6076C46.618 59.5728 47.8836 59.3322 47.0331 59.8903C46.7096 60.1026 46.291 60.4256 45.927 60.5552" stroke="black" stroke-width="1.61628" stroke-linecap="round"/>
<path d="M67.2681 68.1336C67.5446 69.2586 68.1385 70.2734 68.5271 71.3647C68.6305 71.655 68.7481 72.0345 69.0989 72.0403C70.0311 72.0559 70.7833 72.3017 71.7226 71.9672C72.4643 71.7031 73.3729 71.3621 73.8737 70.7194C74.3745 70.0768 73.1961 69.2648 72.8685 68.7589C72.4606 68.129 72.0687 67.4584 71.4249 67.0388C69.9694 66.0901 69.9008 69.2401 70.0668 69.871C70.1233 70.0858 70.1926 70.3804 70.4666 70.385C71.0028 70.3939 70.6471 69.5822 70.5374 69.3662C70.1853 68.6731 69.6009 68.1397 68.9223 67.7733C68.7175 67.6628 67.86 67.2271 67.72 67.6776C67.6532 67.8924 67.7466 68.6843 68.0116 68.7842C68.1722 68.8446 68.8307 68.6611 68.6261 68.734C68.3872 68.819 67.834 69.1196 68.4624 69.0693C68.9318 69.0316 69.4328 68.9893 69.8845 68.8519C69.9091 68.8444 70.8335 68.3378 70.5331 68.2717C70.094 68.1751 69.195 68.5837 70.1442 68.2958C71.2312 67.966 70.2681 67.7608 69.6351 67.8808C69.2197 67.9596 68.1039 68.4032 68.3832 68.0858C68.6623 67.7686 69.1075 67.6009 69.393 67.2685C69.5413 67.0958 68.4432 67.4583 68.896 67.3612C69.9272 67.14 71.0674 67.3226 72.0569 66.9703C72.2974 66.8846 72.5379 66.799 72.7784 66.7133C72.998 66.6352 72.8148 66.4738 72.6618 66.5381C72.0367 66.8006 73.6701 69.9785 73.8472 70.4759C74.0777 71.1232 73.5838 69.1262 73.4973 68.4446C73.4829 68.3312 73.1853 65.8774 73.5255 66.8327C74.0645 68.3464 73.1042 66.635 72.8436 67.1839C72.7245 67.4348 73.4664 68.5102 73.5863 68.7622C73.677 68.9529 73.8032 69.1345 73.8742 69.3341C74.0245 69.756 73.3237 68.6235 72.9994 68.3148C72.5978 67.9325 72.129 67.4975 71.604 67.2881C71.2565 67.1495 71.5006 67.7681 71.5271 67.9177C71.5574 68.0887 71.8158 69.5018 71.7764 69.0574C71.7159 68.3752 71.9483 69.1006 72.0333 69.3393C72.0803 69.4711 72.1272 69.603 72.1742 69.7348C72.3267 70.1631 71.8263 68.958 71.7304 69.2665C71.6091 69.6568 72.0397 70.1459 71.6911 70.509C71.2514 70.9669 70.5308 69.6195 70.8009 70.7658C70.9314 71.3194 69.6296 70.2086 69.3778 70.845C69.3696 70.8657 68.6329 69.5311 68.9969 70.5531C69.099 70.8399 68.7926 69.9795 68.6905 69.6926C68.5281 69.2368 68.7087 70.3497 68.7436 70.4506C68.9203 70.9615 69.22 72.6875 70.026 71.921C70.5916 71.383 71.817 71.1099 72.5546 70.9723C73.2974 70.8338 72.4151 71.2222 72.2246 71.3307C71.7755 71.5867 72.0799 71.4502 72.3487 71.2564C72.6624 71.0303 72.8986 70.9715 73.0358 70.6324C73.1023 70.4681 73.232 70.063 73.0948 69.9188C73.0517 69.8735 72.5169 69.8435 72.8708 69.9323C73.4604 70.0803 72.5523 69.4567 72.7341 70.0894C72.7351 70.0933 72.5649 69.6863 72.278 69.7219C72.1286 69.7404 71.8273 69.9788 71.9856 69.814" stroke="black" stroke-width="1.61628" stroke-linecap="round"/>
</svg>
