<svg width="104" height="28" viewBox="0 0 104 28" fill="none" xmlns="http://www.w3.org/2000/svg">
<path d="M99.5224 2.43065C92.994 3.43275 86.4466 4.32184 79.8988 5.19518C83.1694 4.52231 86.4471 3.88783 89.7423 3.35015C93.5291 2.73226 97.3751 2.25434 101.208 2.02663C102.256 1.96438 101.98 2.01332 101.194 2.15202C100.638 2.2502 100.081 2.34494 99.5224 2.43065Z" fill="white"/>
<path d="M2 10.4832C14.8113 10.4832 27.6911 10.7786 40.4796 9.89808C51.6549 9.12863 62.7792 7.47649 73.874 5.99719C82.4282 4.85663 90.9916 3.74013 99.5224 2.43065C100.081 2.34494 100.638 2.2502 101.194 2.15202C101.98 2.01332 102.256 1.96438 101.208 2.02663C97.3751 2.25434 93.5291 2.73226 89.7423 3.35015C81.6489 4.67076 73.6607 6.57531 65.6264 8.19841C57.0007 9.94097 48.3466 11.4162 39.6715 12.8795C35.398 13.6003 31.1453 14.3394 26.9518 15.4429C26.3561 15.5997 22.9315 16.194 22.424 17.0033C22.3342 17.1465 22.5759 17.3389 22.7305 17.4073C24.0674 17.9994 27.3841 18.292 28.2475 18.3825C34.9221 19.0821 41.6363 19.345 48.3371 19.6503C49.9344 19.7231 51.5324 19.7824 53.1296 19.8593C54.1905 19.9104 57.199 19.6964 56.2921 20.2494C55.8254 20.534 55.2501 20.5845 54.7178 20.7091C51.7398 21.4063 48.7293 21.9582 45.7458 22.6317C41.9338 23.4923 38.1455 24.449 34.3496 25.3763C30.6463 26.2809 33.7627 25.4494 33.5973 25.7803" stroke="#8750FF" stroke-width="3" stroke-linecap="round"/>
</svg>
